<?xml version="1.0" encoding="UTF-8"?>
<!DOCTYPE svg PUBLIC "-//W3C//DTD SVG 1.1//EN" "http://www.w3.org/Graphics/SVG/1.1/DTD/svg11.dtd">
<svg version="1.2" width="31.71mm" height="127.15mm" viewBox="4188 10719 3171 12715" preserveAspectRatio="xMidYMid" fill-rule="evenodd" stroke-width="28.222" stroke-linejoin="round" xmlns="http://www.w3.org/2000/svg" xmlns:ooo="http://xml.openoffice.org/svg/export" xmlns:xlink="http://www.w3.org/1999/xlink" xmlns:presentation="http://sun.com/xmlns/staroffice/presentation" xmlns:smil="http://www.w3.org/2001/SMIL20/" xmlns:anim="urn:oasis:names:tc:opendocument:xmlns:animation:1.0" xml:space="preserve">
 <defs class="ClipPathGroup">
  <clipPath id="presentation_clip_path" clipPathUnits="userSpaceOnUse">
   <rect x="4188" y="10719" width="3171" height="12715"/>
  </clipPath>
  <clipPath id="presentation_clip_path_shrink" clipPathUnits="userSpaceOnUse">
   <rect x="4191" y="10731" width="3165" height="12690"/>
  </clipPath>
 </defs>
 <defs class="TextShapeIndex">
  <g ooo:slide="id1" ooo:id-list="id3 id4 id5 id6 id7 id8 id9 id10"/>
 </defs>
 <defs class="EmbeddedBulletChars">
  <g id="bullet-char-template-57356" transform="scale(0.00048828125,-0.00048828125)">
   <path d="M 580,1141 L 1163,571 580,0 -4,571 580,1141 Z"/>
  </g>
  <g id="bullet-char-template-57354" transform="scale(0.00048828125,-0.00048828125)">
   <path d="M 8,1128 L 1137,1128 1137,0 8,0 8,1128 Z"/>
  </g>
  <g id="bullet-char-template-10146" transform="scale(0.00048828125,-0.00048828125)">
   <path d="M 174,0 L 602,739 174,1481 1456,739 174,0 Z M 1358,739 L 309,1346 659,739 1358,739 Z"/>
  </g>
  <g id="bullet-char-template-10132" transform="scale(0.00048828125,-0.00048828125)">
   <path d="M 2015,739 L 1276,0 717,0 1260,543 174,543 174,936 1260,936 717,1481 1274,1481 2015,739 Z"/>
  </g>
  <g id="bullet-char-template-10007" transform="scale(0.00048828125,-0.00048828125)">
   <path d="M 0,-2 C -7,14 -16,27 -25,37 L 356,567 C 262,823 215,952 215,954 215,979 228,992 255,992 264,992 276,990 289,987 310,991 331,999 354,1012 L 381,999 492,748 772,1049 836,1024 860,1049 C 881,1039 901,1025 922,1006 886,937 835,863 770,784 769,783 710,716 594,584 L 774,223 C 774,196 753,168 711,139 L 727,119 C 717,90 699,76 672,76 641,76 570,178 457,381 L 164,-76 C 142,-110 111,-127 72,-127 30,-127 9,-110 8,-76 1,-67 -2,-52 -2,-32 -2,-23 -1,-13 0,-2 Z"/>
  </g>
  <g id="bullet-char-template-10004" transform="scale(0.00048828125,-0.00048828125)">
   <path d="M 285,-33 C 182,-33 111,30 74,156 52,228 41,333 41,471 41,549 55,616 82,672 116,743 169,778 240,778 293,778 328,747 346,684 L 369,508 C 377,444 397,411 428,410 L 1163,1116 C 1174,1127 1196,1133 1229,1133 1271,1133 1292,1118 1292,1087 L 1292,965 C 1292,929 1282,901 1262,881 L 442,47 C 390,-6 338,-33 285,-33 Z"/>
  </g>
  <g id="bullet-char-template-9679" transform="scale(0.00048828125,-0.00048828125)">
   <path d="M 813,0 C 632,0 489,54 383,161 276,268 223,411 223,592 223,773 276,916 383,1023 489,1130 632,1184 813,1184 992,1184 1136,1130 1245,1023 1353,916 1407,772 1407,592 1407,412 1353,268 1245,161 1136,54 992,0 813,0 Z"/>
  </g>
  <g id="bullet-char-template-8226" transform="scale(0.00048828125,-0.00048828125)">
   <path d="M 346,457 C 273,457 209,483 155,535 101,586 74,649 74,723 74,796 101,859 155,911 209,963 273,989 346,989 419,989 480,963 531,910 582,859 608,796 608,723 608,648 583,586 532,535 482,483 420,457 346,457 Z"/>
  </g>
  <g id="bullet-char-template-8211" transform="scale(0.00048828125,-0.00048828125)">
   <path d="M -4,459 L 1135,459 1135,606 -4,606 -4,459 Z"/>
  </g>
  <g id="bullet-char-template-61548" transform="scale(0.00048828125,-0.00048828125)">
   <path d="M 173,740 C 173,903 231,1043 346,1159 462,1274 601,1332 765,1332 928,1332 1067,1274 1183,1159 1299,1043 1357,903 1357,740 1357,577 1299,437 1183,322 1067,206 928,148 765,148 601,148 462,206 346,322 231,437 173,577 173,740 Z"/>
  </g>
 </defs>
 <defs class="TextEmbeddedBitmaps"/>
 <g class="SlideGroup">
  <g>
   <g id="container-id1">
    <g id="id1" class="Slide" clip-path="url(#presentation_clip_path)">
     <g class="Page">
      <g class="Group">
       <g class="Group">
        <g class="com.sun.star.drawing.CustomShape">
         <g id="id3">
          <rect class="BoundingBox" stroke="none" fill="none" x="4187" y="10718" width="3131" height="3131"/>
          <path fill="none" stroke="rgb(52,101,164)" stroke-width="81" stroke-linejoin="round" d="M 5752,10759 C 6616,10759 7276,11419 7276,12283 7276,13147 6616,13807 5752,13807 4888,13807 4228,13147 4228,12283 4228,11419 4888,10759 5752,10759 Z"/>
         </g>
        </g>
        <g class="com.sun.star.drawing.LineShape">
         <g id="id4">
          <rect class="BoundingBox" stroke="none" fill="none" x="5633" y="15582" width="381" height="1425"/>
          <path fill="none" stroke="rgb(114,159,207)" stroke-width="53" stroke-linejoin="round" d="M 5823,15609 L 5823,16275"/>
          <path fill="rgb(114,159,207)" stroke="none" d="M 5635,16296 L 5785,16968 5788,16982 5797,16995 5809,17003 5822,17006 5837,17003 5849,16995 5858,16982 5861,16968 6011,16296 6011,16291 6013,16288 6009,16274 6001,16261 5988,16253 5974,16250 5672,16250 5658,16253 5645,16261 5636,16274 5634,16288 5634,16291 5635,16296 Z"/>
         </g>
        </g>
        <g class="com.sun.star.drawing.CustomShape">
         <g id="id5">
          <rect class="BoundingBox" stroke="none" fill="none" x="5605" y="15205" width="436" height="436"/>
          <path fill="none" stroke="rgb(114,159,207)" stroke-width="53" stroke-linejoin="round" d="M 5822,15232 C 5930,15232 6013,15314 6013,15422 6013,15530 5930,15613 5822,15613 5714,15613 5632,15530 5632,15422 5632,15314 5714,15232 5822,15232 Z"/>
         </g>
        </g>
        <g class="com.sun.star.drawing.LineShape">
         <g id="id6">
          <rect class="BoundingBox" stroke="none" fill="none" x="5872" y="14543" width="525" height="721"/>
          <path fill="none" stroke="rgb(114,159,207)" stroke-width="53" stroke-linejoin="round" d="M 6369,14570 L 5899,15236"/>
         </g>
        </g>
        <g class="com.sun.star.drawing.LineShape">
         <g id="id7">
          <rect class="BoundingBox" stroke="none" fill="none" x="5776" y="13806" width="56" height="754"/>
          <path fill="none" stroke="rgb(114,159,207)" stroke-width="53" stroke-linejoin="round" d="M 5804,14532 L 5803,13833"/>
         </g>
        </g>
       </g>
       <g class="Group">
        <g class="com.sun.star.drawing.LineShape">
         <g id="id8">
          <rect class="BoundingBox" stroke="none" fill="none" x="5675" y="20155" width="381" height="3279"/>
          <path fill="none" stroke="rgb(114,159,207)" stroke-width="53" stroke-linejoin="round" d="M 5865,20182 L 5865,22702"/>
          <path fill="rgb(114,159,207)" stroke="none" d="M 5677,22723 L 5827,23395 5830,23409 5839,23422 5851,23430 5864,23433 5879,23430 5891,23422 5900,23409 5903,23395 6053,22723 6053,22718 6055,22715 6051,22701 6043,22688 6030,22680 6016,22677 5714,22677 5700,22680 5687,22688 5678,22701 5676,22715 5676,22718 5677,22723 Z"/>
         </g>
        </g>
        <g class="com.sun.star.drawing.CustomShape">
         <g id="id9">
          <rect class="BoundingBox" stroke="none" fill="none" x="5335" y="20764" width="1068" height="1070"/>
          <path fill="rgb(114,159,207)" stroke="none" d="M 5860,21806 L 5362,20791 6375,20795 5860,21806 Z"/>
          <path fill="none" stroke="rgb(52,101,164)" stroke-width="53" stroke-linejoin="round" d="M 5860,21806 L 5362,20791 6375,20795 5860,21806 Z"/>
         </g>
        </g>
        <g class="com.sun.star.drawing.CustomShape">
         <g id="id10">
          <rect class="BoundingBox" stroke="none" fill="none" x="4229" y="17057" width="3131" height="3131"/>
          <path fill="none" stroke="rgb(52,101,164)" stroke-width="81" stroke-linejoin="round" d="M 5794,17098 C 6658,17098 7318,17758 7318,18622 7318,19486 6658,20146 5794,20146 4930,20146 4270,19486 4270,18622 4270,17758 4930,17098 5794,17098 Z"/>
         </g>
        </g>
       </g>
      </g>
     </g>
    </g>
   </g>
  </g>
 </g>
</svg>